<svg width="128" height="126" viewBox="0 0 128 126" fill="none" xmlns="http://www.w3.org/2000/svg">
<path d="M64 0C75.6111 0 86.3195 2.86111 96.125 8.58333C105.931 14.3056 113.694 22.0694 119.417 31.875C125.139 41.6806 128 52.3889 128 64C128 77.9444 123.931 90.4861 115.792 101.625C107.653 112.764 97.1389 120.472 84.25 124.75C82.75 125.028 81.6389 124.833 80.9167 124.167C80.1945 123.5 79.8333 122.667 79.8333 121.667C79.8333 121.5 79.8472 119.375 79.875 115.292C79.9028 111.208 79.9167 107.472 79.9167 104.083C79.9167 98.6945 78.4722 94.75 75.5833 92.25C78.75 91.9167 81.5972 91.4167 84.125 90.75C86.6528 90.0833 89.2639 89 91.9583 87.5C94.6528 86 96.9028 84.1528 98.7083 81.9583C100.514 79.7639 101.986 76.8472 103.125 73.2083C104.264 69.5694 104.833 65.3889 104.833 60.6667C104.833 54.0556 102.639 48.3333 98.25 43.5C100.306 38.4444 100.083 32.7778 97.5833 26.5C96.0278 26 93.7778 26.3056 90.8333 27.4167C87.8889 28.5278 85.3333 29.75 83.1667 31.0833L80 33.0833C74.8333 31.6389 69.5 30.9167 64 30.9167C58.5 30.9167 53.1667 31.6389 48 33.0833C47.1111 32.4722 45.9306 31.7222 44.4583 30.8333C42.9861 29.9444 40.6667 28.875 37.5 27.625C34.3333 26.375 31.9722 26 30.4167 26.5C27.9167 32.7778 27.6944 38.4444 29.75 43.5C25.3611 48.3333 23.1667 54.0556 23.1667 60.6667C23.1667 65.3889 23.7361 69.5556 24.875 73.1667C26.0139 76.7778 27.4722 79.6945 29.25 81.9167C31.0278 84.1389 33.2639 86 35.9583 87.5C38.6528 89 41.2639 90.0833 43.7917 90.75C46.3194 91.4167 49.1667 91.9167 52.3333 92.25C50.1667 94.25 48.8056 97.1111 48.25 100.833C47.0833 101.389 45.8333 101.806 44.5 102.083C43.1667 102.361 41.5833 102.5 39.75 102.5C37.9167 102.5 36.0972 101.903 34.2917 100.708C32.4861 99.5139 30.9444 97.7778 29.6667 95.5C28.6111 93.7222 27.2639 92.2778 25.625 91.1667C23.9861 90.0556 22.6111 89.3889 21.5 89.1667L19.8333 88.9167C18.6667 88.9167 17.8611 89.0417 17.4167 89.2917C16.9722 89.5417 16.8333 89.8611 17 90.25C17.1667 90.6389 17.4167 91.0278 17.75 91.4167C18.0833 91.8056 18.4444 92.1389 18.8333 92.4167L19.4167 92.8333C20.6389 93.3889 21.8472 94.4445 23.0417 96C24.2361 97.5556 25.1111 98.9722 25.6667 100.25L26.5 102.167C27.2222 104.278 28.4444 105.986 30.1667 107.292C31.8889 108.597 33.75 109.431 35.75 109.792C37.75 110.153 39.6806 110.347 41.5417 110.375C43.4028 110.403 44.9444 110.306 46.1667 110.083L48.0833 109.75C48.0833 111.861 48.0972 114.319 48.125 117.125C48.1528 119.931 48.1667 121.444 48.1667 121.667C48.1667 122.667 47.8056 123.5 47.0833 124.167C46.3611 124.833 45.25 125.028 43.75 124.75C30.8611 120.472 20.3472 112.764 12.2083 101.625C4.06944 90.4861 0 77.9444 0 64C0 52.3889 2.86111 41.6806 8.58333 31.875C14.3056 22.0694 22.0694 14.3056 31.875 8.58333C41.6806 2.86111 52.3889 0 64 0ZM24.25 91.9167C24.4167 91.5278 24.2222 91.1945 23.6667 90.9167C23.1111 90.75 22.75 90.8056 22.5833 91.0833C22.4167 91.4722 22.6111 91.8056 23.1667 92.0833C23.6667 92.4167 24.0278 92.3611 24.25 91.9167ZM26.8333 94.75C27.2222 94.4722 27.1667 94.0278 26.6667 93.4167C26.1111 92.9167 25.6667 92.8333 25.3333 93.1667C24.9444 93.4445 25 93.8889 25.5 94.5C26.0556 95.0556 26.5 95.1389 26.8333 94.75ZM29.3333 98.5C29.8333 98.1111 29.8333 97.5833 29.3333 96.9167C28.8889 96.1945 28.4167 96.0278 27.9167 96.4167C27.4167 96.6945 27.4167 97.1945 27.9167 97.9167C28.4167 98.6389 28.8889 98.8333 29.3333 98.5ZM32.8333 102C33.2778 101.556 33.1667 101.028 32.5 100.417C31.8333 99.75 31.2778 99.6667 30.8333 100.167C30.3333 100.611 30.4444 101.139 31.1667 101.75C31.8333 102.417 32.3889 102.5 32.8333 102ZM37.5833 104.083C37.75 103.472 37.3889 103.028 36.5 102.75C35.6667 102.528 35.1389 102.722 34.9167 103.333C34.6944 103.944 35.0556 104.361 36 104.583C36.8333 104.917 37.3611 104.75 37.5833 104.083ZM42.8333 104.5C42.8333 103.778 42.3611 103.472 41.4167 103.583C40.5278 103.583 40.0833 103.889 40.0833 104.5C40.0833 105.222 40.5556 105.528 41.5 105.417C42.3889 105.417 42.8333 105.111 42.8333 104.5ZM47.6667 103.667C47.5556 103.056 47.0556 102.806 46.1667 102.917C45.2778 103.083 44.8889 103.5 45 104.167C45.1111 104.833 45.6111 105.056 46.5 104.833C47.3889 104.611 47.7778 104.222 47.6667 103.667Z" fill="#6841DA"/>
</svg>
