<svg width="428" height="428" viewBox="0 0 428 428" fill="none" xmlns="http://www.w3.org/2000/svg">
<path fill-rule="evenodd" clip-rule="evenodd" d="M0 0V300V428L4 422C7 415 14 402 21 390C22.5372 387.502 24.0375 385.004 25.508 382.556C31.6901 372.263 37.3451 362.847 43 358C50 351 57 351 64 360C66.781 363.178 69.562 367.777 72.4057 372.48C76.7199 379.614 81.1783 386.986 86 390C89.7917 392.167 93.5833 390.519 97.375 388.872C100.583 387.477 103.792 386.083 107 387C111.5 388.929 116 394.577 120.5 400.224C123 403.362 125.5 406.5 128 409C136 415 143 415 150 405C155.385 396.538 160.769 382.16 166.154 367.781C167.769 363.467 169.385 359.154 171 355C178 338 185 326 193 334C196.128 338.021 199.255 346.235 202.383 354.449C206.255 364.618 210.128 374.787 214 377C219.645 380.226 225.29 367.193 230.935 354.159C232.29 351.031 233.645 347.903 235 345C243 330 250 321 257 323C264 326 271 338 278 355C278.928 357.386 279.856 359.826 280.786 362.271C286.874 378.269 293.061 394.53 300 398C307 402 314 390 321 373C322.05 370.3 323.1 367.533 324.15 364.765C330.1 349.083 336.05 333.4 342 330C350 326 357 338 364 353C364.609 354.304 365.217 355.624 365.826 356.943C372.217 370.798 378.609 384.652 385 381C388.823 378.816 392.645 370.071 396.63 360.954C399.943 353.375 403.369 345.539 407 341C414 330 421 334 424 336L428 338V300V0H0Z" fill="#FAEAF4"/>
</svg>
